<svg fill="none" height="24" viewBox="0 0 24 24" width="24" xmlns="http://www.w3.org/2000/svg"><g clip-rule="evenodd" fill="currentColor" fill-rule="evenodd"><path d="M9.56 4.1h3.54a.9.9 0 1 1 0 1.8H9.6c-1 0-1.69 0-2.23.04-.52.05-.82.13-1.05.24a2.6 2.6 0 0 0-1.14 1.14c-.11.23-.2.53-.24 1.05-.04.54-.04 1.24-.04 2.23v3.8c0 1 0 1.69.04 2.23.05.52.13.82.24 1.05.25.49.65.89 1.14 1.14.23.11.53.2 1.05.24.54.04 1.24.04 2.23.04h3.8c1 0 1.69 0 2.23-.04.52-.05.82-.13 1.05-.24a2.6 2.6 0 0 0 1.14-1.14c.11-.23.2-.53.24-1.05.04-.54.04-1.24.04-2.23v-3.5a.9.9 0 0 1 1.8 0v3.54c0 .95 0 1.71-.05 2.33a4.5 4.5 0 0 1-.43 1.73 4.4 4.4 0 0 1-1.92 1.92 4.5 4.5 0 0 1-1.73.43c-.62.05-1.38.05-2.33.05H9.56c-.95 0-1.71 0-2.33-.05a4.5 4.5 0 0 1-1.73-.43 4.4 4.4 0 0 1-1.92-1.92 4.51 4.51 0 0 1-.43-1.73c-.05-.62-.05-1.38-.05-2.33v-3.88c0-.95 0-1.71.05-2.33.05-.64.16-1.2.43-1.73A4.4 4.4 0 0 1 5.5 4.58a4.51 4.51 0 0 1 1.73-.43c.62-.05 1.38-.05 2.33-.05z"></path><path d="M19.12 3.33a1.1 1.1 0 1 1 1.56 1.55l-.35.35a.4.4 0 0 1-.57 0l-.99-.99a.4.4 0 0 1 0-.56zm-.6 2.57-.42-.42c-.44-.44-.72-.42-1.13 0l-5.13 5.12c-1.95 1.96-3.19 3.89-2.76 4.32.43.43 2.36-.8 4.32-2.76l5.12-5.13c.44-.44.42-.72 0-1.13z"></path></g></svg>