<svg width="129" height="39" viewBox="0 0 129 39" fill="none" xmlns="http://www.w3.org/2000/svg">
<g clip-path="url(#clip0_5_10)">
<path d="M32.47 38.651H6.273C2.814 38.651 0 35.843 0 32.391V6.26C0 2.808 2.814 0 6.273 0H32.47C35.928 0 38.742 2.808 38.742 6.26V32.392C38.742 35.844 35.928 38.651 32.47 38.651ZM13.648 29.281L14.095 29.524C16.2684 30.7079 18.7665 31.1566 21.2161 30.8031C23.6656 30.4497 25.935 29.313 27.685 27.563C32.16 23.087 32.16 15.832 27.685 11.356C23.209 6.881 15.954 6.881 11.478 11.356C9.72799 13.106 8.59132 15.3754 8.23786 17.8249C7.8844 20.2745 8.33313 22.7726 9.517 24.946L9.761 25.393L8.565 29.317C8.51132 29.4928 8.5071 29.6799 8.55283 29.8579C8.59855 30.0359 8.69244 30.1979 8.82418 30.326C8.95593 30.4541 9.12043 30.5435 9.29963 30.5842C9.47884 30.625 9.6658 30.6156 9.84 30.557L13.648 29.28V29.281ZM13.458 23.696C13.2313 23.5446 13.0739 23.3093 13.0205 23.042C12.967 22.7746 13.0219 22.497 13.173 22.27L17.008 16.516C17.1389 16.3196 17.3142 16.1568 17.5198 16.0409C17.7255 15.925 17.9555 15.8593 18.1913 15.849C18.4271 15.8388 18.662 15.8844 18.8769 15.982C19.0918 16.0797 19.2806 16.2266 19.428 16.411L20.898 18.249C20.9419 18.3041 20.997 18.3492 21.0596 18.3815C21.1223 18.4138 21.191 18.4325 21.2613 18.4363C21.3317 18.4402 21.402 18.4292 21.4678 18.404C21.5336 18.3787 21.5933 18.3399 21.643 18.29L24.633 15.301C24.814 15.1216 25.0552 15.0156 25.3098 15.0037C25.5644 14.9918 25.8145 15.0747 26.0115 15.2364C26.2085 15.3981 26.3386 15.6271 26.3766 15.8792C26.4145 16.1312 26.3577 16.3884 26.217 16.601L22.381 22.355C22.2501 22.5514 22.0746 22.7141 21.869 22.8299C21.6633 22.9457 21.4332 23.0113 21.1974 23.0215C20.9616 23.0316 20.7267 22.9859 20.5119 22.8882C20.2971 22.7905 20.1083 22.6434 19.961 22.459L18.491 20.619C18.4471 20.5639 18.392 20.5188 18.3294 20.4865C18.2667 20.4542 18.198 20.4355 18.1277 20.4317C18.0573 20.4278 17.987 20.4388 17.9212 20.464C17.8554 20.4893 17.7957 20.5281 17.746 20.578L14.756 23.568C14.41 23.915 13.866 23.968 13.458 23.696V23.696Z" fill="white"/>
</g>
<path d="M56.032 28.288C54.736 28.288 53.528 28.08 52.408 27.664C51.304 27.232 50.344 26.624 49.528 25.84C48.712 25.056 48.072 24.136 47.608 23.08C47.16 22.024 46.936 20.864 46.936 19.6C46.936 18.336 47.16 17.176 47.608 16.12C48.072 15.064 48.712 14.144 49.528 13.36C50.36 12.576 51.328 11.976 52.432 11.56C53.536 11.128 54.744 10.912 56.056 10.912C57.512 10.912 58.824 11.168 59.992 11.68C61.176 12.176 62.168 12.912 62.968 13.888L60.472 16.192C59.896 15.536 59.256 15.048 58.552 14.728C57.848 14.392 57.08 14.224 56.248 14.224C55.464 14.224 54.744 14.352 54.088 14.608C53.432 14.864 52.864 15.232 52.384 15.712C51.904 16.192 51.528 16.76 51.256 17.416C51 18.072 50.872 18.8 50.872 19.6C50.872 20.4 51 21.128 51.256 21.784C51.528 22.44 51.904 23.008 52.384 23.488C52.864 23.968 53.432 24.336 54.088 24.592C54.744 24.848 55.464 24.976 56.248 24.976C57.08 24.976 57.848 24.816 58.552 24.496C59.256 24.16 59.896 23.656 60.472 22.984L62.968 25.288C62.168 26.264 61.176 27.008 59.992 27.52C58.824 28.032 57.504 28.288 56.032 28.288ZM73.1776 14.896C74.2016 14.896 75.1136 15.104 75.9136 15.52C76.7296 15.92 77.3696 16.544 77.8336 17.392C78.2976 18.224 78.5296 19.296 78.5296 20.608V28H74.7856V21.184C74.7856 20.144 74.5536 19.376 74.0896 18.88C73.6416 18.384 73.0016 18.136 72.1696 18.136C71.5776 18.136 71.0416 18.264 70.5616 18.52C70.0976 18.76 69.7296 19.136 69.4576 19.648C69.2016 20.16 69.0736 20.816 69.0736 21.616V28H65.3296V10.192H69.0736V18.664L68.2336 17.584C68.6976 16.72 69.3616 16.056 70.2256 15.592C71.0896 15.128 72.0736 14.896 73.1776 14.896ZM89.8433 28V25.48L89.6033 24.928V20.416C89.6033 19.616 89.3553 18.992 88.8593 18.544C88.3793 18.096 87.6353 17.872 86.6273 17.872C85.9393 17.872 85.2593 17.984 84.5873 18.208C83.9313 18.416 83.3713 18.704 82.9073 19.072L81.5633 16.456C82.2673 15.96 83.1153 15.576 84.1073 15.304C85.0993 15.032 86.1073 14.896 87.1313 14.896C89.0993 14.896 90.6273 15.36 91.7153 16.288C92.8033 17.216 93.3473 18.664 93.3473 20.632V28H89.8433ZM85.9073 28.192C84.8993 28.192 84.0353 28.024 83.3153 27.688C82.5953 27.336 82.0433 26.864 81.6593 26.272C81.2753 25.68 81.0833 25.016 81.0833 24.28C81.0833 23.512 81.2673 22.84 81.6353 22.264C82.0193 21.688 82.6193 21.24 83.4353 20.92C84.2513 20.584 85.3153 20.416 86.6273 20.416H90.0593V22.6H87.0353C86.1553 22.6 85.5473 22.744 85.2113 23.032C84.8913 23.32 84.7313 23.68 84.7313 24.112C84.7313 24.592 84.9153 24.976 85.2833 25.264C85.6673 25.536 86.1873 25.672 86.8433 25.672C87.4673 25.672 88.0273 25.528 88.5233 25.24C89.0193 24.936 89.3793 24.496 89.6033 23.92L90.1793 25.648C89.9073 26.48 89.4113 27.112 88.6913 27.544C87.9713 27.976 87.0433 28.192 85.9073 28.192ZM102.016 28.192C100.496 28.192 99.3118 27.808 98.4638 27.04C97.6158 26.256 97.1918 25.096 97.1918 23.56V12.232H100.936V23.512C100.936 24.056 101.08 24.48 101.368 24.784C101.656 25.072 102.048 25.216 102.544 25.216C103.136 25.216 103.64 25.056 104.056 24.736L105.064 27.376C104.68 27.648 104.216 27.856 103.672 28C103.144 28.128 102.592 28.192 102.016 28.192ZM95.1998 18.256V15.376H104.152V18.256H95.1998ZM107.166 28V15.088H110.91V28H107.166ZM109.038 13.288C108.35 13.288 107.79 13.088 107.358 12.688C106.926 12.288 106.71 11.792 106.71 11.2C106.71 10.608 106.926 10.112 107.358 9.712C107.79 9.312 108.35 9.112 109.038 9.112C109.726 9.112 110.286 9.304 110.718 9.688C111.15 10.056 111.366 10.536 111.366 11.128C111.366 11.752 111.15 12.272 110.718 12.688C110.302 13.088 109.742 13.288 109.038 13.288ZM120.528 28.192C119.152 28.192 117.928 27.904 116.856 27.328C115.8 26.752 114.96 25.968 114.336 24.976C113.728 23.968 113.424 22.824 113.424 21.544C113.424 20.248 113.728 19.104 114.336 18.112C114.96 17.104 115.8 16.32 116.856 15.76C117.928 15.184 119.152 14.896 120.528 14.896C121.888 14.896 123.104 15.184 124.176 15.76C125.248 16.32 126.088 17.096 126.696 18.088C127.304 19.08 127.608 20.232 127.608 21.544C127.608 22.824 127.304 23.968 126.696 24.976C126.088 25.968 125.248 26.752 124.176 27.328C123.104 27.904 121.888 28.192 120.528 28.192ZM120.528 25.12C121.152 25.12 121.712 24.976 122.208 24.688C122.704 24.4 123.096 23.992 123.384 23.464C123.672 22.92 123.816 22.28 123.816 21.544C123.816 20.792 123.672 20.152 123.384 19.624C123.096 19.096 122.704 18.688 122.208 18.4C121.712 18.112 121.152 17.968 120.528 17.968C119.904 17.968 119.344 18.112 118.848 18.4C118.352 18.688 117.952 19.096 117.648 19.624C117.36 20.152 117.216 20.792 117.216 21.544C117.216 22.28 117.36 22.92 117.648 23.464C117.952 23.992 118.352 24.4 118.848 24.688C119.344 24.976 119.904 25.12 120.528 25.12Z" fill="white"/>
<defs>
<clipPath id="clip0_5_10">
<rect width="39" height="39" fill="black"/>
</clipPath>
</defs>
</svg>
