<svg xmlns="http://www.w3.org/2000/svg" height="24" width="24"><g fill="none" fill-rule="evenodd"><path d="M0 0h24v24H0z"/><path d="M16.76023 14.65292l2.89644 2.64982c.39061.35735.40734.94696.03329 1.32101l-.06627.06627c-.37223.37222-.96593.35483-1.321-.0333l-2.64978-2.89648C14.6412 16.53776 13.37458 17 12 17c-3.3137 0-6-2.6863-6-6s2.6863-6 6-6 6 2.6863 6 6c0 1.3746-.46224 2.64122-1.23977 3.65292zM12 15c2.20914 0 4-1.79086 4-4s-1.79086-4-4-4-4 1.79086-4 4 1.79086 4 4 4z" fill="#828282"/></g></svg>