<svg xmlns="http://www.w3.org/2000/svg" viewBox="0 0 32 32"><circle cx="16" cy="16" r="9"/><path d="M17.5 4.139V2a1.5 1.5 0 0 0-3 0v2.139a1.5 1.5 0 0 0 3 0zM8.674 8.673a1.5 1.5 0 0 0 0-2.121L7.16 5.04A1.5 1.5 0 1 0 5.04 7.161l1.512 1.512a1.498 1.498 0 0 0 2.122 0zM2 17.5h2.138a1.5 1.5 0 0 0 0-3H2a1.5 1.5 0 0 0 0 3zm3.04 9.46a1.496 1.496 0 0 0 2.121 0l1.512-1.512a1.5 1.5 0 1 0-2.12-2.12l-1.513 1.51a1.5 1.5 0 0 0 0 2.122zm9.46.901V30a1.5 1.5 0 0 0 3 0v-2.139a1.5 1.5 0 0 0-3 0zm10.339-.901a1.496 1.496 0 0 0 2.121 0 1.5 1.5 0 0 0 0-2.121l-1.512-1.512a1.5 1.5 0 1 0-2.12 2.121l1.51 1.512zM30 14.5h-2.139a1.5 1.5 0 0 0 0 3H30a1.5 1.5 0 0 0 0-3zm-3.04-9.46a1.5 1.5 0 0 0-2.121 0l-1.512 1.512a1.5 1.5 0 1 0 2.121 2.12l1.512-1.51a1.5 1.5 0 0 0 0-2.122z"/></svg>